<svg id="svg" version="1.1" xmlns="http://www.w3.org/2000/svg" xmlns:xlink="http://www.w3.org/1999/xlink" width="400" height="373.33333333333337" viewBox="0, 0, 400,373.33333333333337"><g id="svgg"><path id="path0" d="M187.301 36.224 C 183.841 36.528,182.528 37.107,180.689 39.143 C 178.964 41.052,179.251 40.239,168.589 73.524 C 158.556 104.846,148.246 137.032,136.508 173.669 C 132.329 186.713,124.092 212.428,118.202 230.812 C 98.733 291.587,100.156 287.618,96.723 290.720 C 93.955 293.220,91.666 293.828,78.287 295.612 C 70.440 296.659,67.505 299.127,68.724 303.653 C 69.975 308.297,69.041 308.192,107.563 308.053 C 144.513 307.920,141.977 308.158,143.732 304.659 C 146.144 299.851,143.036 296.755,134.636 295.599 C 132.173 295.260,128.595 294.762,126.683 294.493 C 115.436 292.909,115.038 290.384,122.321 266.853 C 134.454 227.656,134.437 227.699,138.125 225.882 L 139.869 225.023 181.699 225.023 L 223.529 225.023 225.059 225.842 C 228.811 227.849,228.864 227.976,236.833 254.155 C 245.556 282.805,245.752 283.514,245.752 286.405 C 245.752 292.265,243.556 293.588,231.156 295.204 C 224.060 296.129,221.968 296.703,220.418 298.150 C 217.405 300.964,218.011 305.356,221.667 307.190 C 223.789 308.254,322.449 308.378,324.370 307.318 C 326.436 306.178,327.283 304.934,327.443 302.804 C 327.799 298.059,325.414 296.602,315.024 295.214 C 302.996 293.607,300.111 292.499,297.400 288.443 C 295.325 285.337,295.810 286.776,274.166 219.514 C 271.274 210.528,266.541 195.822,263.649 186.835 C 260.758 177.848,256.821 165.621,254.901 159.664 C 252.981 153.707,248.276 139.085,244.444 127.171 C 240.612 115.257,235.907 100.635,233.988 94.678 C 232.069 88.721,228.120 76.452,225.213 67.414 C 217.355 42.987,216.973 41.884,215.720 40.014 C 213.160 36.194,203.030 34.843,187.301 36.224 M184.238 88.063 C 185.745 89.636,186.540 91.899,193.597 114.703 C 197.181 126.285,203.003 145.089,206.535 156.489 C 223.314 210.641,222.216 206.361,219.982 208.906 C 218.102 211.047,218.628 211.018,181.814 211.016 C 145.939 211.013,146.138 211.023,144.051 209.157 C 141.670 207.027,141.931 205.721,149.554 181.699 C 153.204 170.196,160.961 145.658,166.792 127.171 C 172.623 108.683,177.832 92.515,178.367 91.240 C 180.147 87.005,182.174 85.908,184.238 88.063 " stroke="none" fill="#ffffff" fill-rule="evenodd"></path><path id="path1" d="M0.000 186.741 L 0.000 373.483 200.000 373.483 L 400.000 373.483 400.000 186.741 L 400.000 0.000 200.000 0.000 L 0.000 0.000 0.000 186.741 M207.735 36.205 C 212.137 36.599,214.039 37.506,215.720 40.014 C 216.973 41.884,217.355 42.987,225.213 67.414 C 228.120 76.452,232.069 88.721,233.988 94.678 C 235.907 100.635,240.612 115.257,244.444 127.171 C 248.276 139.085,252.981 153.707,254.901 159.664 C 256.821 165.621,260.758 177.848,263.649 186.835 C 266.541 195.822,271.274 210.528,274.166 219.514 C 295.810 286.776,295.325 285.337,297.400 288.443 C 300.111 292.499,302.996 293.607,315.024 295.214 C 325.414 296.602,327.799 298.059,327.443 302.804 C 327.283 304.934,326.436 306.178,324.370 307.318 C 322.449 308.378,223.789 308.254,221.667 307.190 C 218.011 305.356,217.405 300.964,220.418 298.150 C 221.968 296.703,224.060 296.129,231.156 295.204 C 243.556 293.588,245.752 292.265,245.752 286.405 C 245.752 283.514,245.556 282.805,236.833 254.155 C 228.864 227.976,228.811 227.849,225.059 225.842 L 223.529 225.023 181.699 225.023 L 139.869 225.023 138.125 225.882 C 134.437 227.699,134.454 227.656,122.321 266.853 C 115.038 290.384,115.436 292.909,126.683 294.493 C 128.595 294.762,132.173 295.260,134.636 295.599 C 143.036 296.755,146.144 299.851,143.732 304.659 C 141.977 308.158,144.513 307.920,107.563 308.053 C 69.041 308.192,69.975 308.297,68.724 303.653 C 67.505 299.127,70.440 296.659,78.287 295.612 C 91.666 293.828,93.955 293.220,96.723 290.720 C 100.156 287.618,98.733 291.587,118.202 230.812 C 124.092 212.428,132.329 186.713,136.508 173.669 C 148.246 137.032,158.556 104.846,168.589 73.524 C 180.153 37.420,179.540 38.954,183.164 37.080 C 185.251 36.001,199.697 35.487,207.735 36.205 M180.222 87.972 C 178.726 89.587,177.718 92.530,166.792 127.171 C 160.961 145.658,153.204 170.196,149.554 181.699 C 141.931 205.721,141.670 207.027,144.051 209.157 C 146.138 211.023,145.939 211.013,181.814 211.016 C 218.628 211.018,218.102 211.047,219.982 208.906 C 222.216 206.361,223.314 210.641,206.535 156.489 C 203.003 145.089,197.181 126.285,193.597 114.703 C 190.013 103.121,186.665 92.623,186.158 91.374 C 184.472 87.226,182.148 85.894,180.222 87.972 " stroke="none" fill="#000000" fill-rule="evenodd"></path></g></svg>