<svg id="svg" version="1.1" xmlns="http://www.w3.org/2000/svg" xmlns:xlink="http://www.w3.org/1999/xlink" width="400" height="254.15549597855227" viewBox="0, 0, 400,254.15549597855227"><g id="svgg"><path id="path0" d="M189.160 40.432 C 185.147 41.127,184.402 44.974,187.941 46.732 C 188.700 47.109,190.334 47.489,192.645 47.827 C 199.801 48.872,201.293 49.681,202.345 53.084 C 203.050 55.364,203.047 184.443,202.342 186.724 C 201.339 189.970,199.631 190.980,193.643 191.869 C 191.405 192.201,189.174 192.611,188.684 192.779 C 185.215 193.971,184.552 197.352,187.481 198.917 L 188.557 199.491 206.723 199.563 C 219.662 199.614,225.293 199.551,226.294 199.343 C 228.227 198.942,229.371 197.815,229.371 196.314 C 229.371 193.763,227.742 192.775,222.250 191.992 C 215.645 191.051,214.383 190.440,213.045 187.537 L 212.460 186.268 212.460 130.197 C 212.460 70.767,212.434 72.134,213.604 71.075 C 214.551 70.218,215.882 71.749,217.446 75.497 C 217.890 76.561,226.008 99.531,235.486 126.540 C 255.544 183.703,253.818 179.433,257.268 180.443 C 259.590 181.123,276.448 180.862,277.813 180.125 C 280.348 178.757,280.200 179.094,287.977 157.025 C 318.581 70.182,317.252 73.878,318.679 71.639 C 320.246 69.177,321.345 69.641,321.971 73.030 C 322.573 76.291,322.469 184.180,321.862 186.381 C 320.836 190.095,319.304 190.993,312.270 192.002 C 306.999 192.758,305.463 193.598,305.233 195.852 C 305.092 197.242,305.732 198.329,307.090 199.003 C 308.295 199.601,361.693 199.932,364.352 199.358 C 368.552 198.451,368.752 194.174,364.659 192.785 C 364.172 192.619,361.885 192.202,359.577 191.856 C 353.591 190.961,352.042 190.084,350.964 186.979 C 350.461 185.530,350.159 59.070,350.649 55.001 C 351.224 50.229,352.869 48.974,359.910 47.936 C 362.201 47.598,364.550 47.132,365.129 46.900 C 368.225 45.662,368.452 42.395,365.544 40.941 L 364.272 40.305 344.183 40.305 C 322.079 40.305,322.683 40.264,320.899 41.876 C 319.590 43.059,318.865 44.639,316.256 52.003 C 310.537 68.140,280.896 151.059,280.209 152.840 C 278.408 157.510,276.128 157.891,274.271 153.831 C 273.915 153.054,271.858 147.389,269.698 141.244 C 267.539 135.098,259.126 111.147,251.003 88.018 C 233.445 38.027,235.142 42.328,232.453 41.007 L 231.024 40.305 210.680 40.266 C 199.491 40.245,189.807 40.320,189.160 40.432 M94.215 40.931 C 89.875 41.647,90.231 40.934,83.159 63.064 C 80.052 72.784,75.643 86.573,73.360 93.706 C 71.077 100.839,64.331 121.952,58.368 140.623 C 44.943 182.661,44.142 185.095,43.032 187.235 C 41.476 190.238,39.530 191.406,34.870 192.135 C 27.518 193.285,26.739 193.531,25.750 195.015 C 24.547 196.821,25.375 198.910,27.596 199.671 C 29.414 200.294,63.976 200.357,66.050 199.742 C 69.632 198.678,69.548 194.645,65.917 193.401 C 65.257 193.175,63.177 192.766,61.294 192.493 C 56.237 191.758,55.054 191.264,53.931 189.422 C 52.726 187.446,53.021 186.095,58.457 168.699 C 63.284 153.254,63.392 153.011,65.928 151.902 C 67.467 151.229,112.205 151.029,114.762 151.684 C 118.246 152.577,118.289 152.667,123.675 170.375 C 130.008 191.194,130.031 191.046,120.280 192.490 C 115.734 193.163,114.998 193.397,113.865 194.531 C 112.228 196.167,112.629 198.388,114.771 199.560 C 115.936 200.197,170.912 200.377,173.067 199.750 C 176.687 198.698,176.628 194.650,172.974 193.403 C 172.314 193.177,169.935 192.717,167.688 192.381 C 160.733 191.339,158.959 190.187,157.041 185.468 C 156.704 184.637,147.257 155.412,136.048 120.523 C 111.079 42.799,111.759 44.890,111.120 43.856 C 110.380 42.660,109.013 41.527,107.890 41.181 C 106.730 40.823,96.052 40.628,94.215 40.931 M92.256 71.855 C 93.563 72.771,93.047 71.242,104.013 106.675 C 114.960 142.047,114.226 139.314,113.269 141.167 C 112.274 143.090,112.886 143.039,91.036 143.039 C 69.094 143.039,69.804 143.100,68.773 141.107 C 67.876 139.372,68.058 138.710,78.313 106.294 C 89.964 69.468,89.717 70.077,92.256 71.855 " stroke="none" fill="#ffffff" fill-rule="evenodd"></path><path id="path1" d="M0.000 127.146 L 0.000 254.291 200.000 254.291 L 400.000 254.291 400.000 127.146 L 400.000 0.000 200.000 0.000 L 0.000 0.000 0.000 127.146 M232.453 41.007 C 235.142 42.328,233.445 38.027,251.003 88.018 C 259.126 111.147,267.539 135.098,269.698 141.244 C 271.858 147.389,273.915 153.054,274.271 153.831 C 276.128 157.891,278.408 157.510,280.209 152.840 C 280.896 151.059,310.537 68.140,316.256 52.003 C 318.865 44.639,319.590 43.059,320.899 41.876 C 322.683 40.264,322.079 40.305,344.183 40.305 L 364.272 40.305 365.544 40.941 C 368.452 42.395,368.225 45.662,365.129 46.900 C 364.550 47.132,362.201 47.598,359.910 47.936 C 352.869 48.974,351.224 50.229,350.649 55.001 C 350.159 59.070,350.461 185.530,350.964 186.979 C 352.042 190.084,353.591 190.961,359.577 191.856 C 361.885 192.202,364.172 192.619,364.659 192.785 C 368.752 194.174,368.552 198.451,364.352 199.358 C 361.693 199.932,308.295 199.601,307.090 199.003 C 305.732 198.329,305.092 197.242,305.233 195.852 C 305.463 193.598,306.999 192.758,312.270 192.002 C 319.304 190.993,320.836 190.095,321.862 186.381 C 322.469 184.180,322.573 76.291,321.971 73.030 C 321.345 69.641,320.246 69.177,318.679 71.639 C 317.252 73.878,318.581 70.182,287.977 157.025 C 280.200 179.094,280.348 178.757,277.813 180.125 C 276.448 180.862,259.590 181.123,257.268 180.443 C 253.818 179.433,255.544 183.703,235.486 126.540 C 226.008 99.531,217.890 76.561,217.446 75.497 C 215.882 71.749,214.551 70.218,213.604 71.075 C 212.434 72.134,212.460 70.767,212.460 130.197 L 212.460 186.268 213.045 187.537 C 214.383 190.440,215.645 191.051,222.250 191.992 C 227.742 192.775,229.371 193.763,229.371 196.314 C 229.371 197.815,228.227 198.942,226.294 199.343 C 225.293 199.551,219.662 199.614,206.723 199.563 L 188.557 199.491 187.481 198.917 C 184.552 197.352,185.215 193.971,188.684 192.779 C 189.174 192.611,191.405 192.201,193.643 191.869 C 199.631 190.980,201.339 189.970,202.342 186.724 C 203.047 184.443,203.050 55.364,202.345 53.084 C 201.293 49.681,199.801 48.872,192.645 47.827 C 186.485 46.927,183.943 44.451,186.438 41.783 C 187.907 40.212,187.728 40.223,210.680 40.266 L 231.024 40.305 232.453 41.007 M107.890 41.181 C 109.013 41.527,110.380 42.660,111.120 43.856 C 111.759 44.890,111.079 42.799,136.048 120.523 C 147.257 155.412,156.704 184.637,157.041 185.468 C 158.959 190.187,160.733 191.339,167.688 192.381 C 169.935 192.717,172.314 193.177,172.974 193.403 C 176.628 194.650,176.687 198.698,173.067 199.750 C 170.912 200.377,115.936 200.197,114.771 199.560 C 112.629 198.388,112.228 196.167,113.865 194.531 C 114.998 193.397,115.734 193.163,120.280 192.490 C 127.151 191.472,128.786 190.060,128.119 185.717 C 127.799 183.632,119.619 156.855,118.715 154.932 C 116.927 151.130,118.073 151.273,90.110 151.359 C 64.237 151.439,65.770 151.326,64.060 153.274 C 62.294 155.285,53.400 183.533,53.402 187.123 C 53.404 190.473,55.036 191.583,61.294 192.493 C 63.177 192.766,65.257 193.175,65.917 193.401 C 69.548 194.645,69.632 198.678,66.050 199.742 C 63.976 200.357,29.414 200.294,27.596 199.671 C 25.375 198.910,24.547 196.821,25.750 195.015 C 26.739 193.531,27.518 193.285,34.870 192.135 C 39.530 191.406,41.476 190.238,43.032 187.235 C 44.142 185.095,44.943 182.661,58.368 140.623 C 64.331 121.952,71.077 100.839,73.360 93.706 C 75.643 86.573,80.052 72.784,83.159 63.064 C 89.734 42.490,89.776 42.390,92.293 41.397 C 94.121 40.676,105.733 40.515,107.890 41.181 M89.994 71.990 C 88.898 73.085,87.783 76.359,78.313 106.294 C 66.879 142.437,67.191 141.009,70.393 142.489 C 72.267 143.355,109.806 143.355,111.679 142.489 C 113.784 141.516,114.149 139.793,113.051 136.011 C 112.251 133.257,95.839 80.222,94.805 77.050 C 93.145 71.962,91.623 70.361,89.994 71.990 " stroke="none" fill="#000000" fill-rule="evenodd"></path></g></svg>